# xmcd CD database file
#
# Track frame offsets:
#	150
#	22800
#	51093
#	77860
#	101426
#	127676
#	154617
#	174815
#	199928
#	223628
#	248678
#	271782
#
# Disc length: 3950 seconds
#
# Revision: 0
# Processed by: cddbd v1.5.2PL0 Copyright (c) Steve Scherf et al.
# Submitted via: CDex 1.70beta2
#
DISCID=8b0f6c0c
DTITLE=Knut Müller liest Karl May - Winnetou I
DYEAR=2006
DGENRE=Hörbuch Karl May
TTITLE0=Winnetou I
TTITLE1=Winnetou I
TTITLE2=Winnetou I
TTITLE3=Winnetou I
TTITLE4=Winnetou I
TTITLE5=Winnetou I
TTITLE6=Winnetou I
TTITLE7=Winnetou I
TTITLE8=Winnetou I
TTITLE9=Winnetou I
TTITLE10=Winnetou I
TTITLE11=Winnetou I
EXTD=YEAR: 2006
EXTT0=
EXTT1=
EXTT2=
EXTT3=
EXTT4=
EXTT5=
EXTT6=
EXTT7=
EXTT8=
EXTT9=
EXTT10=
EXTT11=
PLAYORDER=
